<mxfile host="app.diagrams.net" modified="2024-03-29T02:22:01.526Z" agent="Mozilla/5.0 (Macintosh; Intel Mac OS X 10_15_7) AppleWebKit/537.36 (KHTML, like Gecko) Chrome/123.0.0.0 Safari/537.36 Edg/123.0.0.0" etag="IwpvyJXD9oeo-OyXL1A6" version="21.7.3" type="device">
  <diagram name="Page-1" id="6zTn594EXOiCRMb0io20">
    <mxGraphModel dx="752" dy="504" grid="1" gridSize="10" guides="1" tooltips="1" connect="1" arrows="1" fold="1" page="1" pageScale="1" pageWidth="850" pageHeight="1100" math="0" shadow="0">
      <root>
        <mxCell id="0" />
        <mxCell id="1" parent="0" />
        <mxCell id="0OI2fZHcwD-u9iFsY1xd-6" value="" style="outlineConnect=0;dashed=0;verticalLabelPosition=bottom;verticalAlign=top;align=center;html=1;shape=mxgraph.aws3.management_console;fillColor=#D2D3D3;gradientColor=none;" vertex="1" parent="1">
          <mxGeometry x="70" y="130" width="63" height="63" as="geometry" />
        </mxCell>
        <mxCell id="0OI2fZHcwD-u9iFsY1xd-10" value="" style="outlineConnect=0;dashed=0;verticalLabelPosition=bottom;verticalAlign=top;align=center;html=1;shape=mxgraph.aws3.management_console;fillColor=#D2D3D3;gradientColor=none;" vertex="1" parent="1">
          <mxGeometry x="80" y="140" width="63" height="63" as="geometry" />
        </mxCell>
        <mxCell id="0OI2fZHcwD-u9iFsY1xd-16" style="edgeStyle=orthogonalEdgeStyle;rounded=0;orthogonalLoop=1;jettySize=auto;html=1;entryX=0.096;entryY=0.537;entryDx=0;entryDy=0;entryPerimeter=0;endArrow=none;endFill=0;" edge="1" parent="1" source="0OI2fZHcwD-u9iFsY1xd-11" target="0OI2fZHcwD-u9iFsY1xd-12">
          <mxGeometry relative="1" as="geometry" />
        </mxCell>
        <mxCell id="0OI2fZHcwD-u9iFsY1xd-11" value="Client Network" style="outlineConnect=0;dashed=0;verticalLabelPosition=bottom;verticalAlign=top;align=center;html=1;shape=mxgraph.aws3.management_console;fillColor=#D2D3D3;gradientColor=none;" vertex="1" parent="1">
          <mxGeometry x="90" y="150" width="63" height="63" as="geometry" />
        </mxCell>
        <mxCell id="0OI2fZHcwD-u9iFsY1xd-17" style="edgeStyle=orthogonalEdgeStyle;rounded=0;orthogonalLoop=1;jettySize=auto;html=1;" edge="1" parent="1" source="0OI2fZHcwD-u9iFsY1xd-12" target="0OI2fZHcwD-u9iFsY1xd-13">
          <mxGeometry relative="1" as="geometry" />
        </mxCell>
        <mxCell id="0OI2fZHcwD-u9iFsY1xd-12" value="" style="ellipse;shape=cloud;whiteSpace=wrap;html=1;" vertex="1" parent="1">
          <mxGeometry x="210" y="139" width="120" height="80" as="geometry" />
        </mxCell>
        <mxCell id="0OI2fZHcwD-u9iFsY1xd-13" value="" style="sketch=0;outlineConnect=0;fontColor=#232F3E;gradientColor=none;fillColor=#4D27AA;strokeColor=none;dashed=0;verticalLabelPosition=bottom;verticalAlign=top;align=center;html=1;fontSize=12;fontStyle=0;aspect=fixed;pointerEvents=1;shape=mxgraph.aws4.network_load_balancer;" vertex="1" parent="1">
          <mxGeometry x="386" y="139" width="78" height="78" as="geometry" />
        </mxCell>
      </root>
    </mxGraphModel>
  </diagram>
</mxfile>
